<?xml version="1.0" encoding="UTF-8"?>
<svg version="1.1" xmlns="http://www.w3.org/2000/svg" width="512" height="512">
<path d="M0 0 C0.78081436 -0.00710495 1.56162872 -0.0142099 2.36610413 -0.02153015 C35.01855821 -0.25122431 35.01855821 -0.25122431 48.57421875 3.203125 C49.48703613 3.42887207 50.39985352 3.65461914 51.34033203 3.88720703 C82.97984419 11.90696244 109.92128619 26.80711157 133.57421875 49.203125 C134.46753906 50.04359375 135.36085938 50.8840625 136.28125 51.75 C164.73187434 79.28542944 185.68147412 121.24688044 186.73535156 161.2980957 C186.75485478 162.74163533 186.76862591 164.1852612 186.77734375 165.62890625 C186.7844487 166.40972061 186.79155365 167.19053497 186.7988739 167.99501038 C187.02856806 200.64746446 187.02856806 200.64746446 183.57421875 214.203125 C183.34847168 215.11594238 183.12272461 216.02875977 182.89013672 216.96923828 C176.86604703 240.73545672 167.11226789 262.2701465 152.30078125 281.8359375 C150.56469109 284.21618781 149.07388686 286.66931186 147.57421875 289.203125 C148.17536184 289.80242451 148.77650494 290.40172401 149.39586449 291.01918411 C164.01474352 305.59391699 178.62810049 320.17416618 193.23531151 334.76059341 C200.29934582 341.81431001 207.36524506 348.86613941 214.43554688 355.91357422 C220.59716965 362.05527832 226.75528265 368.20047607 232.90918601 374.34991527 C236.16850383 377.60662314 239.42956606 380.86154047 242.69483566 384.1122818 C245.76723124 387.17111758 248.83491729 390.23459768 251.8990345 393.30172539 C253.02522917 394.42736918 254.15314295 395.55129603 255.2828846 396.6733799 C256.82389404 398.20445329 258.35862535 399.74155795 259.89193726 401.28033447 C261.18336923 402.56900106 261.18336923 402.56900106 262.50089073 403.88370132 C266.89571634 408.80017498 267.01202932 412.85123191 266.88671875 419.2890625 C266.31819719 424.59052601 263.79556091 427.04284995 260.07421875 430.578125 C255.01643389 432.92638226 250.05736082 433.17409807 244.57421875 432.203125 C240.37167135 429.66907383 236.94559916 426.82258283 233.48684692 423.35626221 C233.01211185 422.88323599 232.53737678 422.41020977 232.0482558 421.92284942 C230.4728647 420.35072918 228.90468765 418.77161234 227.33642578 417.19238281 C226.2029801 416.05837249 225.06909286 414.92480336 223.93479919 413.79164124 C220.86670893 410.72412345 217.80481288 407.65049007 214.74400949 404.57570362 C211.54051975 401.359689 208.33134379 398.14935867 205.12277222 394.93841553 C199.05219647 388.86163019 192.98673589 382.77976579 186.92310607 376.69605041 C180.01774592 369.76831508 173.10668797 362.8462758 166.19515061 355.92470407 C151.98183383 341.69049707 137.77567113 327.44916848 123.57421875 313.203125 C120.22974148 315.43046415 116.89018723 317.66223875 113.578125 319.9375 C82.45460741 341.15632713 49.03651311 352.67140694 11.13671875 352.578125 C10.30239319 352.57758118 9.46806763 352.57703735 8.60845947 352.57647705 C-5.073919 352.53559312 -18.11629698 351.58953112 -31.42578125 348.203125 C-32.27156738 347.99413574 -33.11735352 347.78514648 -33.98876953 347.56982422 C-65.01233567 339.68848059 -91.43145376 323.12870205 -114.42578125 301.203125 C-115.21726563 300.46449219 -116.00875 299.72585938 -116.82421875 298.96484375 C-138.37151502 278.28699978 -153.08225667 249.21283063 -160.67578125 220.640625 C-161.04533936 219.25895142 -161.04533936 219.25895142 -161.42236328 217.84936523 C-164.92579785 204.08863933 -165.80490124 190.63732288 -165.73828125 176.515625 C-165.73579376 175.67352478 -165.73330627 174.83142456 -165.73074341 173.96380615 C-165.67520923 161.81754408 -165.44006531 150.03186834 -162.42578125 138.203125 C-162.20003418 137.29030762 -161.97428711 136.37749023 -161.74169922 135.43701172 C-153.76570382 103.9701414 -138.75649333 76.76819805 -116.42578125 53.203125 C-115.58402344 52.30851562 -114.74226563 51.41390625 -113.875 50.4921875 C-85.074344 20.73289896 -41.74682018 0.25209954 0 0 Z M-86.42578125 70.203125 C-87.2468335 70.93934082 -87.2468335 70.93934082 -88.08447266 71.69042969 C-113.23927838 94.66022756 -130.98986335 129.34829526 -132.58691406 163.66552734 C-132.63293393 167.63661417 -132.67244317 171.6067667 -132.67578125 175.578125 C-132.67645599 176.29654572 -132.67713074 177.01496643 -132.67782593 177.75515747 C-132.66170699 188.54836557 -132.14153425 198.70590828 -129.42578125 209.203125 C-129.27544434 209.85071777 -129.12510742 210.49831055 -128.97021484 211.16552734 C-124.69747535 229.50325562 -116.01644999 247.39630673 -104.42578125 262.203125 C-103.36810547 263.58951172 -103.36810547 263.58951172 -102.2890625 265.00390625 C-89.093515 281.75301232 -73.27338896 294.32756689 -54.42578125 304.203125 C-53.27980469 304.80898438 -52.13382812 305.41484375 -50.953125 306.0390625 C-36.93271472 313.15708733 -21.06624882 317.69445963 -5.42578125 319.203125 C-4.17410156 319.33589844 -2.92242187 319.46867187 -1.6328125 319.60546875 C33.60383406 322.81916578 71.15649555 311.98609184 98.7109375 289.6484375 C108.09377105 281.63526724 117.13889466 273.57983716 124.51171875 263.640625 C125.02822998 262.94590088 125.54474121 262.25117676 126.0769043 261.53540039 C130.82237417 255.04280534 134.86493605 248.34812075 138.57421875 241.203125 C139.17878906 240.0584375 139.78335937 238.91375 140.40625 237.734375 C144.04125621 230.58114599 146.6544841 223.28188844 148.88671875 215.578125 C149.25047607 214.32696899 149.25047607 214.32696899 149.62158203 213.05053711 C152.95862637 200.92043989 153.95444006 189.00457473 153.88671875 176.453125 C153.88489594 175.74968964 153.88307312 175.04625427 153.88119507 174.32150269 C153.83474203 163.66196782 153.28358318 153.56373456 150.57421875 143.203125 C150.39729492 142.50767578 150.22037109 141.81222656 150.03808594 141.09570312 C140.14848157 102.80124199 115.59140735 71.29289037 81.82421875 50.953125 C26.8551426 20.9756583 -39.86858253 28.43576154 -86.42578125 70.203125 Z " fill="#000000" transform="translate(213.42578125,47.796875)"/>
</svg>
