<?xml version="1.0" encoding="UTF-8"?>
<svg version="1.1" xmlns="http://www.w3.org/2000/svg" width="512" height="512">
<path d="M0 0 C3.32219126 2.93638247 6.55599668 5.95545514 9.74072266 9.04003906 C11.08382893 10.33903374 12.44374417 11.62058407 13.8046875 12.90087891 C52.69648627 50.32736658 71.77664926 104.36054428 73.16796875 157.42041016 C73.76605694 202.93492126 58.70361309 248.25419072 31.16796875 284.42041016 C30.58015625 285.20416016 29.99234375 285.98791016 29.38671875 286.79541016 C28.98453125 287.33166016 28.58234375 287.86791016 28.16796875 288.42041016 C29.71735923 292.1316811 31.97893235 294.45584767 34.82958984 297.26147461 C35.30138168 297.72873962 35.77317352 298.19600464 36.25926208 298.6774292 C37.28125063 299.68848583 38.305506 300.69725517 39.33176804 301.70397377 C40.95959672 303.30154375 42.58057571 304.90578116 44.19985962 306.51200867 C48.80411967 311.0766047 53.42090684 315.62845389 58.04101562 320.17700195 C60.87020517 322.96329682 63.69190362 325.75700807 66.50941849 328.55510521 C67.58053172 329.6157013 68.65454637 330.67337598 69.73157883 331.72796059 C83.70035035 345.4061342 83.70035035 345.4061342 84.41796875 356.17041016 C84.31881424 362.8261565 81.88641744 368.70196147 77.16796875 373.42041016 C71.0106498 377.67874289 65.62290222 379.1167501 58.16796875 378.42041016 C46.30768631 375.55098698 37.88164453 364.27886092 29.56640625 355.91650391 C28.59442913 354.94265519 27.62222616 353.96903184 26.64981079 352.99562073 C24.12583125 350.46787434 21.60487248 347.93713722 19.08459473 345.40570068 C16.49836746 342.80913179 13.90920636 340.21549173 11.3203125 337.62158203 C6.26670421 332.5573397 1.21629078 327.48992262 -3.83203125 322.42041016 C-7.78356341 323.91782423 -10.5442429 325.62408212 -13.83203125 328.29541016 C-28.53560757 339.69404336 -45.56420492 347.73341283 -62.83203125 354.42041016 C-63.4986377 354.67902832 -64.16524414 354.93764648 -64.85205078 355.20410156 C-72.68253446 358.17215724 -80.68911799 360.21126238 -88.83203125 362.10791016 C-89.69755615 362.31061523 -90.56308105 362.51332031 -91.45483398 362.72216797 C-105.98799814 365.95806252 -120.13239931 366.79625605 -134.95703125 366.73291016 C-135.86410828 366.730755 -136.7711853 366.72859985 -137.70574951 366.72637939 C-150.94941953 366.67586558 -163.86513928 366.3597484 -176.83203125 363.42041016 C-178.18506348 363.12239502 -178.18506348 363.12239502 -179.56542969 362.81835938 C-234.48940544 350.40327173 -281.19232667 317.62825129 -311.83203125 270.42041016 C-314.68211379 265.84232481 -317.32166443 261.18999346 -319.83203125 256.42041016 C-320.22535645 255.6732373 -320.61868164 254.92606445 -321.02392578 254.15625 C-346.24114221 205.48574124 -350.49186056 148.82160597 -334.83203125 96.42041016 C-330.67098351 83.52751657 -325.17441688 71.36925059 -318.83203125 59.42041016 C-318.36539063 58.48583984 -317.89875 57.55126953 -317.41796875 56.58837891 C-300.34764108 23.29624863 -270.82029732 -3.98081428 -238.83203125 -22.57958984 C-237.92469238 -23.11060303 -237.92469238 -23.11060303 -236.99902344 -23.65234375 C-162.82368964 -66.53558746 -64.39590455 -55.52258828 0 0 Z M-240.83203125 32.42041016 C-241.68023437 33.16033203 -242.5284375 33.90025391 -243.40234375 34.66259766 C-245.91260316 36.88114496 -248.37842677 39.13948161 -250.83203125 41.42041016 C-251.54746094 42.07009766 -252.26289063 42.71978516 -253 43.38916016 C-277.09720412 66.21347007 -291.19819229 97.34384767 -297.83203125 129.42041016 C-298.07824219 130.59732422 -298.32445312 131.77423828 -298.578125 132.98681641 C-301.8242332 152.30675696 -301.1107716 173.32611022 -296.83203125 192.42041016 C-296.66574219 193.1896582 -296.49945313 193.95890625 -296.328125 194.75146484 C-289.61544588 225.0455371 -274.42587026 250.58778265 -253.83203125 273.42041016 C-253.1565625 274.16935547 -252.48109375 274.91830078 -251.78515625 275.68994141 C-241.99430219 285.96196992 -229.97395101 294.18706921 -217.83203125 301.42041016 C-217.26468262 301.76168945 -216.69733398 302.10296875 -216.11279297 302.45458984 C-179.49493913 324.15328974 -134.08988515 328.6207923 -93.20703125 318.23291016 C-67.62860379 311.27650147 -44.47274757 298.75115664 -25.16015625 280.59619141 C-23.3463481 278.90107205 -21.52973415 277.32794481 -19.58203125 275.79541016 C8.86908537 251.22399126 25.80278984 209.7528622 28.88671875 172.93212891 C31.96833679 127.76469533 17.93621128 84.08808138 -11.875 49.88525391 C-39.55123142 18.88644373 -78.88652958 -2.77936829 -120.83203125 -5.57958984 C-164.4387076 -7.3054296 -207.50914203 2.7172597 -240.83203125 32.42041016 Z " fill="#000000" transform="translate(385.83203125,91.57958984375)"/>
<path d="M0 0 C3.10093678 2.72350639 5.98680308 5.63560761 8.875 8.58203125 C9.68493408 9.39621017 10.49486816 10.2103891 11.3293457 11.04924011 C13.89341176 13.62998672 16.44679909 16.2210083 19 18.8125 C20.7453966 20.57295708 22.49148354 22.33273002 24.23828125 24.09179688 C28.50020534 28.38664923 32.75343048 32.68996794 37 37 C42.18222565 32.67679938 46.97317576 28.12211248 51.69140625 23.30078125 C53.14489249 21.82979172 54.59867742 20.35909727 56.05273438 18.88867188 C58.3160871 16.59430421 60.57701163 14.29769186 62.83276367 11.99584961 C65.02886394 9.75735634 67.23435767 7.52847363 69.44140625 5.30078125 C70.11031387 4.61325272 70.7792215 3.92572418 71.46839905 3.21736145 C77.16113769 -2.50621655 82.27063725 -5.47438342 90.40625 -6.0625 C96.07841988 -5.92582121 100.44972661 -4.27466923 104.8125 -0.6875 C109.06064909 4.5316546 112.10631596 8.78837139 112.3125 15.625 C112.36857422 16.81996094 112.36857422 16.81996094 112.42578125 18.0390625 C111.10959043 27.19202255 105.72775855 32.96526811 99.296875 39.19140625 C98.04019012 40.43747902 98.04019012 40.43747902 96.75811768 41.70872498 C94.10032766 44.3387038 91.42562659 46.950682 88.75 49.5625 C86.93635111 51.35104928 85.12383855 53.14075161 83.3125 54.93164062 C78.88805997 59.30118718 74.44963188 63.65611761 70 68 C71.39049665 71.14943564 73.00170542 73.22669845 75.46826172 75.6159668 C76.17594696 76.30736252 76.8836322 76.99875824 77.61276245 77.71110535 C78.37734772 78.44968277 79.14193298 79.18826019 79.9296875 79.94921875 C81.54600856 81.53536349 83.1618798 83.1219667 84.77734375 84.70898438 C87.32209588 87.19809609 89.8704891 89.6831302 92.42724609 92.15991211 C94.89778179 94.55750362 97.35205237 96.97083666 99.8046875 99.38671875 C100.5652243 100.11517502 101.32576111 100.84363129 102.10934448 101.59416199 C107.49562793 106.9288975 111.09376264 112.24891735 112.53125 119.78515625 C112.42881958 127.2497733 110.42765676 132.12514331 105.625 137.8125 C100.24355443 142.29703797 94.96259522 144.16138466 88 144 C77.28323728 142.28677603 70.29176426 133.44472164 63 126.09765625 C62.2788501 125.3750914 61.5577002 124.65252655 60.81469727 123.9080658 C58.54074585 121.62857396 56.27032046 119.3456076 54 117.0625 C52.44684765 115.50432494 50.89346433 113.94638007 49.33984375 112.38867188 C45.55722414 108.59510241 41.7774831 104.79868385 38 101 C32.81777435 105.32320062 28.02682424 109.87788752 23.30859375 114.69921875 C21.85510751 116.17020828 20.40132258 117.64090273 18.94726562 119.11132812 C16.6839129 121.40569579 14.42298837 123.70230814 12.16723633 126.00415039 C9.97113606 128.24264366 7.76564233 130.47152637 5.55859375 132.69921875 C4.88968613 133.38674728 4.2207785 134.07427582 3.53160095 134.78263855 C-2.1624203 140.50750611 -7.2727678 143.47513963 -15.41015625 144.0625 C-22.48333039 143.891805 -28.12860951 141.0979668 -33 136 C-36.95066374 130.70783361 -37.4608192 125.60463365 -37.53125 119.125 C-36.03153662 110.30315657 -30.45889462 104.91132133 -24.296875 98.90625 C-23.45908508 98.07411987 -22.62129517 97.24198975 -21.75811768 96.38464355 C-19.09804009 93.74683408 -16.42435144 91.12332889 -13.75 88.5 C-11.93658092 86.70665806 -10.12407076 84.91239653 -8.3125 83.1171875 C-3.88546492 78.73409295 0.55280917 74.36263765 5 70 C3.59204132 66.79737748 1.92309857 64.69545427 -0.57592773 62.26049805 C-1.30686142 61.54262619 -2.0377951 60.82475433 -2.7908783 60.08512878 C-3.5804744 59.31840347 -4.3700705 58.55167816 -5.18359375 57.76171875 C-6.84988558 56.12072312 -8.51589235 54.479438 -10.18164062 52.83789062 C-12.80904862 50.26007952 -15.43950396 47.68554686 -18.07543945 45.11645508 C-20.62037218 42.63207625 -23.15260549 40.13529123 -25.68359375 37.63671875 C-26.47116562 36.87606613 -27.25873749 36.11541351 -28.07017517 35.33171082 C-33.16157879 30.28717528 -36.39231721 26.24283031 -37.43359375 18.97265625 C-37.44227842 12.50257933 -37.13881554 7.19380773 -33 2 C-22.79811729 -7.91419404 -11.15686749 -8.06512926 0 0 Z " fill="#000000" transform="translate(208,187)"/>
</svg>
